<svg xmlns="http://www.w3.org/2000/svg" viewBox="0 0 900 560"><defs><linearGradient id="g" x1="0" y1="0" x2="1" y2="1"><stop stop-color="#ffe2ba"/><stop offset="1" stop-color="#ff9a77"/></linearGradient></defs><rect width="900" height="560" fill="url(#g)"/><g opacity=".8" fill="#fff"><rect x="90" y="110" width="90" height="90" rx="7"/><rect x="195" y="110" width="90" height="90" rx="7"/><rect x="300" y="110" width="90" height="90" rx="7"/><rect x="90" y="215" width="90" height="90" rx="7"/><rect x="195" y="215" width="90" height="90" rx="7"/><rect x="300" y="215" width="90" height="90" rx="7"/></g><g fill="none" stroke="#153250" stroke-width="8" stroke-linecap="round"><path d="M126 167l17-21 14 30"/><path d="M230 153c25-28 43 6 10 25-30 18-4 40 22 13"/><path d="M330 145c-25 5-29 53 8 63 25 7 32-62-8-63Z"/><path d="M120 255c24-25 47 2 12 25-32 21 4 44 25 9"/><path d="M250 245v60M235 260l17-18"/><path d="M335 245c-28 0-33 63 5 63 33 0 33-63-5-63Z"/></g><text x="500" y="170" fill="#153250" font-family="monospace" font-size="22" letter-spacing="3">MODEL / 03</text><text x="500" y="225" fill="#153250" font-family="sans-serif" font-size="30" font-weight="700">handwritten digits</text><text x="500" y="265" fill="#153250" font-family="monospace" font-size="17">train → validate → predict</text></svg>
