<svg xmlns="http://www.w3.org/2000/svg" viewBox="0 0 900 560"><defs><linearGradient id="g" x1="0" y1="0" x2="1" y2="1"><stop stop-color="#c7f5f1"/><stop offset="1" stop-color="#5bbfd7"/></linearGradient></defs><rect width="900" height="560" fill="url(#g)"/><rect x="90" y="100" width="720" height="350" rx="18" fill="#f8ffff" opacity=".82"/><rect x="125" y="140" width="200" height="260" rx="10" fill="#153250"/><rect x="355" y="140" width="200" height="105" rx="10" fill="#fff"/><rect x="585" y="140" width="190" height="105" rx="10" fill="#fff"/><rect x="355" y="270" width="420" height="130" rx="10" fill="#fff"/><g fill="#4de3e7"><rect x="150" y="190" width="110" height="12" rx="6"/><rect x="150" y="225" width="70" height="12" rx="6"/><rect x="150" y="260" width="90" height="12" rx="6"/></g><g fill="#987dff"><rect x="390" y="174" width="90" height="14" rx="7"/><rect x="620" y="174" width="90" height="14" rx="7"/></g><text x="52" y="70" fill="#153250" font-family="monospace" font-size="22" letter-spacing="3">SYSTEM / 02</text><text x="52" y="510" fill="#153250" font-family="sans-serif" font-size="30" font-weight="700">data-driven operations</text></svg>
